<?xml version="1.0" standalone="no"?>
<!DOCTYPE svg PUBLIC "-//W3C//DTD SVG 1.1//EN" "http://www.w3.org/Graphics/SVG/1.1/DTD/svg11.dtd"><svg t="1677060546341"
  class="icon" viewBox="0 0 1024 1024" version="1.1" xmlns="http://www.w3.org/2000/svg" p-id="1850"
  xmlns:xlink="http://www.w3.org/1999/xlink" width="200" height="200">
  <path
    d="M554.666667 173.013333A384 384 0 0 1 896 554.666667v384H128v-384a384 384 0 0 1 341.333333-381.653334V42.666667h85.333334v130.346666zM512 768a213.333333 213.333333 0 1 0 0-426.666667 213.333333 213.333333 0 0 0 0 426.666667z m0-85.333333a128 128 0 1 1 0-256 128 128 0 0 1 0 256z m0-85.333334a42.666667 42.666667 0 1 0 0-85.333333 42.666667 42.666667 0 0 0 0 85.333333z"
    p-id="1851"></path>
</svg>
